<?xml version="1.0" encoding="utf-8"?>
<!-- Generator: Adobe Illustrator 28.0.0, SVG Export Plug-In . SVG Version: 6.00 Build 0)  -->
<svg version="1.1" id="Layer_2_00000028290012586540853220000016623507670761220231_"
	 xmlns="http://www.w3.org/2000/svg" xmlns:xlink="http://www.w3.org/1999/xlink" x="0px" y="0px" viewBox="0 0 86 86"
	 enable-background="new 0 0 86 86" xml:space="preserve">
<path fill="#967FFF" d="M40.34-91.19"/>
<g>
	<path fill="#C0B2FF" d="M37.54,37.198H4c-2.2,0-4,2.338-4,5.186v25.08c0,2.465,1.5,4.535,3.5,4.535h9.46
		c1.103,0,2.188,0.368,3.146,1.067c0,0,5.367,12.935,17.806,12.935c-5.789-4.197-5.229-11.643-5.229-11.643
		c-0.091-1.266,0.69-2.359,1.685-2.359h7.63c1.299,0,2.352-1.345,2.352-3.005V40.826C40.35,38.884,39.05,37.198,37.54,37.198z"/>
	<path fill="#C0B2FF" d="M83.19,0H49.65c-2.2,0-4,2.415-4,5.357v27.975c0,2.547,1.5,4.684,3.5,4.684h9.46
		c1.103,0,2.188,0.38,3.146,1.102c0,0,5.367,11.296,17.806,11.296c-5.789-4.336-5.229-9.962-5.229-9.962
		c-0.091-1.308,0.69-2.437,1.685-2.437h7.63c1.299,0,2.352-1.39,2.352-3.104V3.748C86,1.742,84.7,0,83.19,0z"/>
	<path fill="#967FFF" d="M2.81,0h33.54c2.2,0,4,1.55,4,3.438v17.953c0,1.634-1.5,3.006-3.5,3.006h-9.46
		c-1.103,0-2.188,0.244-3.146,0.707c0,0-5.367,7.249-17.806,7.249c5.789-2.782,5.229-6.393,5.229-6.393
		c0.091-0.84-0.69-1.564-1.685-1.564h-7.63C1.053,24.397,0,23.505,0,22.405v-20C0,1.118,1.3,0,2.81,0z"/>
	<path fill="#967FFF" d="M48.46,54.55H82c2.2,0,4,1.506,4,3.342v17.451c0,1.589-1.5,2.922-3.5,2.922h-9.46
		c-1.103,0-2.188,0.237-3.146,0.688c0,0-5.367,7.047-17.806,7.047c5.789-2.705,5.229-6.214,5.229-6.214
		c0.091-0.816-0.69-1.52-1.685-1.52h-7.63c-1.299,0-2.352-0.867-2.352-1.936V56.888C45.65,55.637,46.95,54.55,48.46,54.55z"/>
</g>
</svg>
