<?xml version="1.0" encoding="utf-8"?>
<!-- Generator: Adobe Illustrator 28.0.0, SVG Export Plug-In . SVG Version: 6.00 Build 0)  -->
<svg version="1.1" id="Layer_2_00000140698096846804136480000012060753113884848039_"
	 xmlns="http://www.w3.org/2000/svg" xmlns:xlink="http://www.w3.org/1999/xlink" x="0px" y="0px" viewBox="0 0 86 86"
	 enable-background="new 0 0 86 86" xml:space="preserve">
<g>
	<path fill="#E6007E" d="M43.4,54.9l-1.3-0.6c-13.7-5.9-24.8-21.7-24.8-35.1c0-6.3,2.5-10,4.6-12c2.6-2.5,6.2-3.8,10-3.8
		c4.3,0,9.2,2.4,11.4,6.7c2-4.4,6.4-6.8,11.4-6.8c3.9,0,7.4,1.4,10,3.9c2.1,2,4.6,5.7,4.6,12c0,13.8-9.9,27.8-24.7,35L43.4,54.9z
		 M32,10.4c-2.3,0-3.4,0.8-4.9,2.2c-1.8,1.7-2.7,3.3-2.7,6.7c0,10.6,8,22.6,18.9,28c11.9-6.3,19-17,19-28c0-3.4-0.9-5-2.7-6.7
		c-1.5-1.4-2.6-2.2-4.9-2.2c-4,0-9,4.7-11.4,10.4C40.8,15.1,36,10.4,32,10.4z"/>
	<path fill="#E6007E" d="M4.9,16.9c3,0,4.8,26.2,4.8,26.2l27.2,23.7l-2.4,15.9H13.2l6.4-17.1L0.8,46.7C0.8,46.7,1.9,16.9,4.9,16.9z"
		/>
	<path fill="#E6007E" d="M81.1,16.9c-3,0-4.8,26.2-4.8,26.2L49.2,66.7l2.4,15.9h21.3l-6.4-17.1l18.8-18.8
		C85.2,46.7,84.1,16.9,81.1,16.9z"/>
</g>
</svg>
