<?xml version="1.0" encoding="utf-8"?>
<!-- Generator: Adobe Illustrator 28.0.0, SVG Export Plug-In . SVG Version: 6.00 Build 0)  -->
<svg version="1.1" id="Layer_2_00000106843812277361974760000010442169764901233027_"
	 xmlns="http://www.w3.org/2000/svg" xmlns:xlink="http://www.w3.org/1999/xlink" x="0px" y="0px" viewBox="0 0 86 86"
	 enable-background="new 0 0 86 86" xml:space="preserve">
<path fill="#967FFF" d="M76.83,22.95C65.97,21.8,54.64,21.19,43,21.19S20.03,21.8,9.17,22.95C8.04,29.27,7.43,36,7.43,43
	s0.61,13.73,1.74,20.05C20.03,64.2,31.36,64.81,43,64.81s22.97-0.61,33.83-1.76C77.96,56.73,78.57,50,78.57,43
	S77.96,29.27,76.83,22.95z M29.58,58.65h-7.16V48.33h7.16V58.65z M39.58,58.65h-7.16V39.3h7.16V58.65z M51.58,58.65h-7.16V43.93
	h7.16V58.65z M63.58,58.65h-7.16v-31.3h7.16V58.65z M76.83,22.95C65.97,21.8,54.64,21.19,43,21.19S20.03,21.8,9.17,22.95
	C8.04,29.27,7.43,36,7.43,43s0.61,13.73,1.74,20.05C20.03,64.2,31.36,64.81,43,64.81s22.97-0.61,33.83-1.76
	C77.96,56.73,78.57,50,78.57,43S77.96,29.27,76.83,22.95z M29.58,58.65h-7.16V48.33h7.16V58.65z M39.58,58.65h-7.16V39.3h7.16V58.65
	z M51.58,58.65h-7.16V43.93h7.16V58.65z M63.58,58.65h-7.16v-31.3h7.16V58.65z M76.83,22.95C65.97,21.8,54.64,21.19,43,21.19
	S20.03,21.8,9.17,22.95C8.04,29.27,7.43,36,7.43,43s0.61,13.73,1.74,20.05C20.03,64.2,31.36,64.81,43,64.81s22.97-0.61,33.83-1.76
	C77.96,56.73,78.57,50,78.57,43S77.96,29.27,76.83,22.95z M29.58,58.65h-7.16V48.33h7.16V58.65z M39.58,58.65h-7.16V39.3h7.16V58.65
	z M51.58,58.65h-7.16V43.93h7.16V58.65z M63.58,58.65h-7.16v-31.3h7.16V58.65z M76.83,22.95C65.97,21.8,54.64,21.19,43,21.19
	S20.03,21.8,9.17,22.95C8.04,29.27,7.43,36,7.43,43s0.61,13.73,1.74,20.05C20.03,64.2,31.36,64.81,43,64.81s22.97-0.61,33.83-1.76
	C77.96,56.73,78.57,50,78.57,43S77.96,29.27,76.83,22.95z M29.58,58.65h-7.16V48.33h7.16V58.65z M39.58,58.65h-7.16V39.3h7.16V58.65
	z M51.58,58.65h-7.16V43.93h7.16V58.65z M63.58,58.65h-7.16v-31.3h7.16V58.65z M76.83,22.95C65.97,21.8,54.64,21.19,43,21.19
	S20.03,21.8,9.17,22.95C8.04,29.27,7.43,36,7.43,43s0.61,13.73,1.74,20.05C20.03,64.2,31.36,64.81,43,64.81s22.97-0.61,33.83-1.76
	C77.96,56.73,78.57,50,78.57,43S77.96,29.27,76.83,22.95z M29.58,58.65h-7.16V48.33h7.16V58.65z M39.58,58.65h-7.16V39.3h7.16V58.65
	z M51.58,58.65h-7.16V43.93h7.16V58.65z M63.58,58.65h-7.16v-31.3h7.16V58.65z M82.29,14H3.71C1.66,14,0,15.66,0,17.71v50.58
	C0,70.34,1.66,72,3.71,72h78.58c2.05,0,3.71-1.66,3.71-3.71V17.71C86,15.66,84.34,14,82.29,14z M80.63,62.63
	c-0.22,1.29-0.47,2.55-0.73,3.8c-1.27,0.15-2.55,0.29-3.83,0.42c-10.73,1.1-21.81,1.66-33.07,1.66s-22.34-0.56-33.07-1.66
	c-1.28-0.13-2.56-0.27-3.83-0.42c-0.26-1.25-0.51-2.51-0.73-3.8C4.3,56.41,3.73,49.82,3.73,43S4.3,29.59,5.37,23.37
	c0.22-1.29,0.47-2.55,0.73-3.8c1.27-0.15,2.55-0.29,3.83-0.42c10.73-1.1,21.81-1.66,33.07-1.66s22.34,0.56,33.07,1.66
	c1.28,0.13,2.56,0.27,3.83,0.42c0.26,1.25,0.51,2.51,0.73,3.8c1.07,6.22,1.64,12.81,1.64,19.63S81.7,56.41,80.63,62.63z M43,21.19
	c-11.64,0-22.97,0.61-33.83,1.76C8.04,29.27,7.43,36,7.43,43s0.61,13.73,1.74,20.05C20.03,64.2,31.36,64.81,43,64.81
	s22.97-0.61,33.83-1.76C77.96,56.73,78.57,50,78.57,43s-0.61-13.73-1.74-20.05C65.97,21.8,54.64,21.19,43,21.19z M29.58,58.65h-7.16
	V48.33h7.16V58.65z M39.58,58.65h-7.16V39.3h7.16V58.65z M51.58,58.65h-7.16V43.93h7.16V58.65z M63.58,58.65h-7.16v-31.3h7.16V58.65
	z M76.83,22.95C65.97,21.8,54.64,21.19,43,21.19S20.03,21.8,9.17,22.95C8.04,29.27,7.43,36,7.43,43s0.61,13.73,1.74,20.05
	C20.03,64.2,31.36,64.81,43,64.81s22.97-0.61,33.83-1.76C77.96,56.73,78.57,50,78.57,43S77.96,29.27,76.83,22.95z M29.58,58.65
	h-7.16V48.33h7.16V58.65z M39.58,58.65h-7.16V39.3h7.16V58.65z M51.58,58.65h-7.16V43.93h7.16V58.65z M63.58,58.65h-7.16v-31.3h7.16
	V58.65z M76.83,22.95C65.97,21.8,54.64,21.19,43,21.19S20.03,21.8,9.17,22.95C8.04,29.27,7.43,36,7.43,43s0.61,13.73,1.74,20.05
	C20.03,64.2,31.36,64.81,43,64.81s22.97-0.61,33.83-1.76C77.96,56.73,78.57,50,78.57,43S77.96,29.27,76.83,22.95z M29.58,58.65
	h-7.16V48.33h7.16V58.65z M39.58,58.65h-7.16V39.3h7.16V58.65z M51.58,58.65h-7.16V43.93h7.16V58.65z M63.58,58.65h-7.16v-31.3h7.16
	V58.65z M76.83,22.95C65.97,21.8,54.64,21.19,43,21.19S20.03,21.8,9.17,22.95C8.04,29.27,7.43,36,7.43,43s0.61,13.73,1.74,20.05
	C20.03,64.2,31.36,64.81,43,64.81s22.97-0.61,33.83-1.76C77.96,56.73,78.57,50,78.57,43S77.96,29.27,76.83,22.95z M29.58,58.65
	h-7.16V48.33h7.16V58.65z M39.58,58.65h-7.16V39.3h7.16V58.65z M51.58,58.65h-7.16V43.93h7.16V58.65z M63.58,58.65h-7.16v-31.3h7.16
	V58.65z M76.83,22.95C65.97,21.8,54.64,21.19,43,21.19S20.03,21.8,9.17,22.95C8.04,29.27,7.43,36,7.43,43s0.61,13.73,1.74,20.05
	C20.03,64.2,31.36,64.81,43,64.81s22.97-0.61,33.83-1.76C77.96,56.73,78.57,50,78.57,43S77.96,29.27,76.83,22.95z M29.58,58.65
	h-7.16V48.33h7.16V58.65z M39.58,58.65h-7.16V39.3h7.16V58.65z M51.58,58.65h-7.16V43.93h7.16V58.65z M63.58,58.65h-7.16v-31.3h7.16
	V58.65z M76.83,22.95C65.97,21.8,54.64,21.19,43,21.19S20.03,21.8,9.17,22.95C8.04,29.27,7.43,36,7.43,43s0.61,13.73,1.74,20.05
	C20.03,64.2,31.36,64.81,43,64.81s22.97-0.61,33.83-1.76C77.96,56.73,78.57,50,78.57,43S77.96,29.27,76.83,22.95z M29.58,58.65
	h-7.16V48.33h7.16V58.65z M39.58,58.65h-7.16V39.3h7.16V58.65z M51.58,58.65h-7.16V43.93h7.16V58.65z M63.58,58.65h-7.16v-31.3h7.16
	V58.65z"/>
</svg>
