<?xml version="1.0" encoding="UTF-8"?><svg id="Layer_2" xmlns="http://www.w3.org/2000/svg" xmlns:xlink="http://www.w3.org/1999/xlink" viewBox="0 0 1898 1101.42"><defs><style>.cls-1{clip-path:url(#clippath);}.cls-2{fill:none;}.cls-2,.cls-3{stroke-width:0px;}.cls-4{clip-path:url(#clippath-1);}.cls-5{opacity:.26;}.cls-3{fill:#fff;}.cls-6{fill:url(#linear-gradient);stroke:#f2f2f2;stroke-miterlimit:10;}</style><linearGradient id="linear-gradient" x1="1907.57" y1="46.18" x2=".38" y2="1050.01" gradientUnits="userSpaceOnUse"><stop offset="0" stop-color="#5900b3"/><stop offset="0" stop-color="#5800b2"/><stop offset=".11" stop-color="#480092"/><stop offset=".23" stop-color="#3c0079"/><stop offset=".36" stop-color="#320065"/><stop offset=".5" stop-color="#2b0057"/><stop offset=".68" stop-color="#27004f"/><stop offset="1" stop-color="#26004d"/></linearGradient><clipPath id="clippath"><rect class="cls-2" x="35" y="2.21" width="841" height="1097" transform="translate(908.09 1103.82) rotate(-179.7)"/></clipPath><clipPath id="clippath-1"><rect class="cls-2" x="-189.13" y="-1.32" width="1596" height="1103" transform="translate(-1.19 1.32) rotate(-.12)"/></clipPath></defs><g id="Layer_1-2"><rect class="cls-6" x=".5" y="28.71" width="1897" height="1044" rx="43.82" ry="43.82"/><g class="cls-5"><g class="cls-1"><g class="cls-4"><path class="cls-3" d="m-19.34-18.58l494.35,1831.45-2.42.65L-21.77-17.92l2.42-.65Zm492.81,1830.57l.65,2.42,1007.93-272.06-.65-2.42-1007.93,272.06ZM986.16-289.98l494.35,1831.45,2.42-.65L988.58-290.64l-2.42.65ZM-20.88-19.46l.65,2.42,1007.93-272.06-.65-2.42L-20.88-19.46Z"/><path class="cls-3" d="m51.49-80.97l332.85,1867.57-2.47.44L49.02-80.53l2.47-.44Zm331.39,1866.56l.44,2.47,1027.8-183.18-.44-2.47-1027.8,183.18ZM1076.83-263.71l332.85,1867.57,2.47-.44-332.85-1867.57-2.47.44ZM50.04-81.98l.44,2.47,1027.8-183.18-.44-2.47L50.04-81.98Z"/><path class="cls-3" d="m127.5-136.95l168.81,1889.47-2.5.22L125-136.73l2.5-.22Zm167.45,1888.34l.22,2.5,1039.86-92.9-.22-2.5-1039.86,92.9ZM1164.86-229.63l168.81,1889.47,2.5-.22-168.81-1889.47-2.5.22ZM126.14-138.09l.22,2.5,1039.86-92.9-.22-2.5L126.14-138.09Z"/><path class="cls-3" d="m208.09-186.09l3.49,1897h-2.51s-3.49-1896.99-3.49-1896.99h2.51Zm2.23,1895.74v2.51s1044-1.92,1044-1.92v-2.51s-1044,1.92-1044,1.92ZM1249.58-188.01l3.49,1897h2.51s-3.49-1897-3.49-1897h-2.51Zm-1042.75.66v2.51s1044-1.92,1044-1.92v-2.51s-1044,1.92-1044,1.92Z"/><path class="cls-3" d="m292.67-228.03l-161.86,1890.08-2.5-.21L290.17-228.24l2.5.21Zm-163,1888.73l-.21,2.5,1040.19,89.08.21-2.5-1040.19-89.08ZM1330.36-139.16l-161.86,1890.08,2.5.21,161.86-1890.08-2.5-.21ZM291.52-229.38l-.21,2.5,1040.19,89.08.21-2.5L291.52-229.38Z"/><path class="cls-3" d="m380.57-262.43L54.6,1606.36l-2.47-.43L378.1-262.86l2.47.43ZM53.58,1604.9l-.43,2.47,1028.47,179.4.43-2.47L53.58,1604.9ZM1406.57-83.46l-325.97,1868.78,2.47.43L1409.04-83.03l-2.47-.43ZM379.55-263.88l-.43,2.47L1407.59-82.01l.43-2.47L379.55-263.88Z"/><path class="cls-3" d="m471.14-289.04L-16.47,1544.22l-2.42-.64L468.71-289.68l2.42.64ZM-17.36,1542.69l-.64,2.42,1008.92,268.35.64-2.42L-17.36,1542.69ZM1477.64-21.33l-487.61,1833.26,2.42.64L1480.06-20.69l-2.42-.64ZM470.25-290.57l-.65,2.43L1478.53-19.8l.65-2.43L470.25-290.57Z"/><path class="cls-3" d="m563.68-307.65L-81.85,1476.14l-2.36-.85L561.32-308.51l2.36.85ZM-82.6,1474.53l-.85,2.36,981.69,355.26.85-2.36L-82.6,1474.53ZM1543.02,46.76l-645.53,1783.79,2.36.85L1545.38,47.61l-2.36-.85Zm-980.09-356.02l-.85,2.36L1543.77,48.36l.85-2.36-981.69-355.26Z"/><path class="cls-3" d="m657.5-318.13L-141.05,1402.61l-2.28-1.06L655.22-319.19l2.28,1.06ZM-141.66,1400.94l-1.06,2.28,947,439.47,1.06-2.28-947-439.47ZM1602.21,120.29l-798.54,1720.74,2.28,1.06L1604.49,121.34l-2.28-1.06Zm-945.33-440.08l-1.06,2.28L1602.82,121.95l1.06-2.28-947-439.47Z"/><path class="cls-3" d="m751.86-320.39L-193.61,1324.2l-2.18-1.25L749.69-321.64l2.18,1.25ZM-194.07,1322.49l-1.25,2.17,905.09,520.34,1.25-2.17L-194.07,1322.49ZM1654.78,198.69l-945.48,1644.59,2.17,1.25L1656.95,199.94l-2.17-1.25ZM751.4-322.11l-1.25,2.18L1655.24,200.41l1.25-2.18L751.4-322.11Z"/><path class="cls-3" d="m846.07-314.42L-239.14,1241.51l-2.06-1.44L844.01-315.86l2.06,1.44ZM-239.45,1239.76l-1.44,2.06,856.3,597.24,1.44-2.06L-239.45,1239.76ZM1700.31,281.38L615.1,1837.31l2.06,1.44L1702.37,282.82l-2.06-1.44ZM845.76-316.17l-1.44,2.06,856.3,597.24,1.44-2.06L845.76-316.17Z"/><path class="cls-3" d="m939.4-300.26L-277.29,1155.17l-1.93-1.61L937.48-301.87l1.93,1.61ZM-277.45,1153.4l-1.61,1.92,800.98,669.6,1.61-1.92-800.98-669.6ZM1738.46,367.73L521.77,1823.15l1.92,1.61L1740.38,369.34l-1.92-1.61ZM939.24-302.03l-1.61,1.93,800.98,669.6,1.61-1.93L939.24-302.03Z"/><path class="cls-3" d="m1031.14-278.02L-307.77,1065.83l-1.78-1.77L1029.36-279.79l1.78,1.77ZM-307.77,1064.05l-1.77,1.78,739.58,736.86,1.77-1.78-739.58-736.86ZM1768.94,457.07L430.03,1800.92l1.78,1.77L1770.72,458.84l-1.78-1.77Zm-737.8-736.86l-1.77,1.78,739.58,736.86,1.77-1.78-739.58-736.86Z"/><path class="cls-3" d="m1120.59-247.87L-330.35,974.17l-1.62-1.92L1118.98-249.79l1.62,1.92ZM-330.2,972.4l-1.92,1.62,672.54,798.51,1.92-1.62L-330.2,972.4Zm2121.71-423.68L340.58,1770.76l1.62,1.92L1793.13,550.64l-1.62-1.92ZM1120.74-249.64l-1.92,1.62,672.54,798.51,1.92-1.62L1120.74-249.64Z"/></g></g></g></g></svg>