<?xml version="1.0" encoding="UTF-8"?><svg id="Layer_2" xmlns="http://www.w3.org/2000/svg" viewBox="0 0 85 83.05"><defs><style>.cls-1{fill:#fff;stroke-width:0px;}</style></defs><g id="Layer_2-2"><circle class="cls-1" cx="41.57" cy="53.15" r="16.8"/><path class="cls-1" d="m59.6,20.35l-4.1-10.4c-.6-1-1.6-1.6-2.8-1.6h-22.4c-1.1,0-2.2.6-2.7,1.6l-4.4,10.7H2.5c-1.4,0-2.5,1.1-2.5,2.5v57.1c0,1.6,1.3,2.8,2.8,2.8h78.9c1.8,0,3.3-1.5,3.3-3.3V23.05c0-1.5-1.2-2.7-2.7-2.7h-22.7Zm-30.2-2.9c0-1.8,1.4-3.2,3.2-3.2h18c1.8,0,3.2,1.4,3.2,3.2v3.3c0,1.9-1.6,3.5-3.5,3.5h-17.4c-1.9,0-3.5-1.6-3.5-3.5v-3.3Zm14.3,56.1c-12.9,1.3-23.7-9.5-22.4-22.4,1-9.6,8.7-17.3,18.3-18.3,12.9-1.3,23.7,9.5,22.4,22.4-1,9.6-8.8,17.3-18.3,18.3Z"/><rect class="cls-1" x="12.01" y="0" width="1.19" height="17.18" rx=".59" ry=".59"/><rect class="cls-1" x="12.01" y="0" width="1.19" height="17.18" rx=".59" ry=".59" transform="translate(4.01 21.19) rotate(-90)"/></g></svg>