<?xml version="1.0" encoding="utf-8"?>
<!-- Generator: Adobe Illustrator 28.0.0, SVG Export Plug-In . SVG Version: 6.00 Build 0)  -->
<svg version="1.1" id="Layer_2_00000140698096846804136480000012060753113884848039_"
	 xmlns="http://www.w3.org/2000/svg" xmlns:xlink="http://www.w3.org/1999/xlink" x="0px" y="0px" viewBox="0 0 86 86"
	 enable-background="new 0 0 86 86" xml:space="preserve">
<g>
	<ellipse fill="#AB99FF" cx="42.06" cy="55.04" rx="17" ry="17.4"/>
	<path fill="#C0B2FF" d="M60.3,21.07L56.15,10.3c-0.61-1.04-1.62-1.66-2.83-1.66H30.66c-1.11,0-2.23,0.62-2.73,1.66l-4.27,10.64
		c-0.11,0.27-0.36,0.44-0.64,0.44H8.14c-4.5,0-8.14,3.73-8.14,8.33v47.96C0,82.27,3.64,86,8.13,86H77.6c4.64,0,8.4-3.85,8.4-8.6
		V29.69c0-4.76-3.77-8.61-8.42-8.61H60.3z M29.75,15.47c0-0.39,0.31-0.71,0.69-0.71h23.3c0.38,0,0.69,0.32,0.69,0.71v8.94
		c0,0.39-0.31,0.71-0.69,0.71h-23.3c-0.38,0-0.69-0.32-0.69-0.71V15.47z M44.21,76.16c-13.05,1.35-23.98-9.84-22.66-23.2
		c1.01-9.94,8.8-17.91,18.52-18.95c13.05-1.35,23.98,9.84,22.66,23.2C61.72,67.15,53.83,75.13,44.21,76.16z"/>
	<path fill="#EAE5FF" d="M12.75,0h0.01c0.33,0,0.6,0.27,0.6,0.61v16.57c0,0.34-0.27,0.61-0.6,0.61h-0.01c-0.33,0-0.6-0.27-0.6-0.61
		V0.61C12.15,0.27,12.42,0,12.75,0z"/>
	<path fill="#EAE5FF" d="M4.06,8.9V8.88c0-0.34,0.27-0.61,0.6-0.61h16.19c0.33,0,0.6,0.27,0.6,0.61V8.9c0,0.34-0.27,0.61-0.6,0.61
		H4.65C4.32,9.51,4.06,9.23,4.06,8.9z"/>
</g>
</svg>
