<?xml version="1.0" encoding="utf-8"?>
<!-- Generator: Adobe Illustrator 28.0.0, SVG Export Plug-In . SVG Version: 6.00 Build 0)  -->
<svg version="1.1" id="Layer_2_00000140698096846804136480000012060753113884848039_"
	 xmlns="http://www.w3.org/2000/svg" xmlns:xlink="http://www.w3.org/1999/xlink" x="0px" y="0px" viewBox="0 0 86 86"
	 enable-background="new 0 0 86 86" xml:space="preserve">
<g>
	<path fill="#73AF2C" d="M3.7,29c3,0,7.7,23.7,7.7,23.7l27.6,17.4L33.5,86H12.2l8-12.1L1.5,57.1C1.5,57.1,0.7,29,3.7,29z"/>
	<path fill="#73AF2C" d="M75.3,17.6c-3,0,1.4,24.8,1.4,24.8L49.2,70l2.4,15.9h21.3l-5.4-16.1l17.8-25.2
		C85.2,44.6,78.3,17.6,75.3,17.6z"/>
</g>
<g>
	<g>
		<polygon fill="#73AF2C" points="62.9,10.6 68.4,40.1 45.6,59.8 17.1,49.7 11.6,20.2 13.2,18.8 33.1,1.7 34.4,0.5 36.1,1.1 61,9.9 
					"/>
		<g>
			<polygon fill="#9AE93A" points="12,22 38.7,31.3 43.9,59.1 17.2,49.8 			"/>
			<polygon fill="#9AE93A" points="63.2,12.2 68.4,40 46.9,58.4 41.5,30.8 			"/>
		</g>
	</g>
	<polygon fill="#9AE93A" points="36.1,1.1 41.7,30.9 38.7,31.5 33.1,1.7 34.4,0.5 	"/>
	<path fill="#9AE93A" d="M62.9,10.6l0.3,1.8c-0.2,0.4,0,0.1-1.3,0.4l-48.8,9.1c-1.6,0.2-1.3,0-1.4-0.5l-0.2-1.2l1.6-1.3l47.9-9
		L62.9,10.6z"/>
</g>
</svg>
