<?xml version="1.0" encoding="utf-8"?>
<!-- Generator: Adobe Illustrator 28.0.0, SVG Export Plug-In . SVG Version: 6.00 Build 0)  -->
<svg version="1.1" id="Layer_2_00000140698096846804136480000012060753113884848039_"
	 xmlns="http://www.w3.org/2000/svg" xmlns:xlink="http://www.w3.org/1999/xlink" x="0px" y="0px" viewBox="0 0 86 86"
	 enable-background="new 0 0 86 86" xml:space="preserve">
<g>
	<path fill="#73AF2C" d="M4.9,20.2c3,0,4.8,26.2,4.8,26.2l27.2,23.7L34.5,86H13.2l6.4-17.1L0.8,50C0.8,50,1.9,20.2,4.9,20.2z"/>
	<path fill="#73AF2C" d="M81.1,20.2c-3,0-4.8,26.2-4.8,26.2L49.2,70l2.4,15.9h21.3l-6.4-17.1L85.3,50C85.2,50,84.1,20.2,81.1,20.2z"
		/>
</g>
<g>
	<polygon fill="#73AF2C" points="69.1,45.2 69.1,15.1 43,0 16.9,15.1 16.9,45.2 43,60.2 	"/>
	<g>
		<polygon fill="#9AE93A" points="16.9,16.8 41.4,30.9 41.4,59.2 16.9,45 		"/>
		<polygon fill="#9AE93A" points="69.1,16.8 69.1,45 44.6,59.2 44.6,30.9 		"/>
	</g>
</g>
<polygon fill="#73AF2C" points="66.5,-47.6 66.5,-77.7 40.4,-92.8 14.3,-77.7 14.3,-47.6 40.4,-32.5 "/>
<g>
	<polygon fill="#9AE93A" points="14.3,-75.9 38.8,-61.7 38.8,-33.4 14.3,-47.6 	"/>
	<polygon fill="#9AE93A" points="66.5,-75.9 66.5,-47.6 42,-33.4 42,-61.7 	"/>
</g>
<polygon fill="#AEEE62" points="16.4,-77.7 38.8,-64.9 38.8,-82.1 "/>
<polygon fill="#568321" points="66.5,-77.6 40.4,-92.8 40.4,-64 "/>
<polygon fill="#AEEE62" points="42,-64.9 53.3,-90.7 64.6,-77.6 "/>
<g>
	<g>
		<polygon fill="#73AF2C" points="145.6,-10.9 145.6,19.2 119.5,34.3 93.4,19.2 93.4,-10.9 95.2,-11.9 118,-25.1 119.5,-26 
			121,-25.1 143.9,-11.9 		"/>
		<g>
			<polygon fill="#9AE93A" points="93.4,-9.2 117.9,4.9 117.9,33.2 93.4,19.1 			"/>
			<polygon fill="#9AE93A" points="145.6,-9.2 145.6,19.1 121.1,33.2 121.1,4.9 			"/>
		</g>
	</g>
	<polygon fill="#9AE93A" points="121,-25.1 121,5.2 118,5.2 118,-25.1 119.5,-26 	"/>
	<path fill="#9AE93A" d="M145.6-10.9v1.3c-0.3,0.4-0.7,0.7-1.3,0.7H94.7c-0.5,0-1-0.3-1.2-0.7v-1.3l1.7-1h48.7L145.6-10.9z"/>
</g>
</svg>
