<?xml version="1.0" encoding="utf-8"?>
<!-- Generator: Adobe Illustrator 28.0.0, SVG Export Plug-In . SVG Version: 6.00 Build 0)  -->
<svg version="1.1" id="Layer_2_00000140698096846804136480000012060753113884848039_"
	 xmlns="http://www.w3.org/2000/svg" xmlns:xlink="http://www.w3.org/1999/xlink" x="0px" y="0px" viewBox="0 0 86 86"
	 enable-background="new 0 0 86 86" xml:space="preserve">
<g>
	<path fill="#73AF2C" d="M4.9,20.2c3,0,4.8,26.2,4.8,26.2l27.2,23.7L34.5,86H13.2l6.4-17.1L0.8,50C0.8,50,1.9,20.2,4.9,20.2z"/>
	<path fill="#73AF2C" d="M81.1,20.2c-3,0-4.8,26.2-4.8,26.2L49.2,70l2.4,15.9h21.3l-6.4-17.1L85.3,50C85.2,50,84.1,20.2,81.1,20.2z"
		/>
</g>
<g>
	<polygon fill="#73AF2C" points="69.1,45.2 69.1,15.1 43,0 16.9,15.1 16.9,45.2 43,60.3 	"/>
	<g>
		<polygon fill="#9AE93A" points="16.9,16.9 41.4,31.1 41.4,59.4 16.9,45.2 		"/>
		<polygon fill="#9AE93A" points="69.1,16.9 69.1,45.2 44.6,59.4 44.6,31.1 		"/>
	</g>
	<polygon fill="#AEEE62" points="19,15.1 41.4,27.9 39.6,7 	"/>
	<polygon fill="#568321" points="69.1,15.2 43,0 43,28.8 	"/>
	<polygon fill="#AEEE62" points="44.6,27.9 57,0.7 66.1,15.3 	"/>
</g>
</svg>
