<?xml version="1.0" encoding="utf-8"?>
<!-- Generator: Adobe Illustrator 28.0.0, SVG Export Plug-In . SVG Version: 6.00 Build 0)  -->
<svg version="1.1" id="Layer_2_00000028290012586540853220000016623507670761220231_"
	 xmlns="http://www.w3.org/2000/svg" xmlns:xlink="http://www.w3.org/1999/xlink" x="0px" y="0px" viewBox="0 0 86 86"
	 enable-background="new 0 0 86 86" xml:space="preserve">
<path fill="#967FFF" d="M40.34-91.19"/>
<g>
	<path fill="#C0B2FF" d="M28.54,47.191c-2.312,2.312-4.62,13.186-3.828,14.096c0.807,0.926,11.274-1.007,14.096-3.828l40.652-40.652
		L69.192,6.539L28.54,47.191z M36.969,56.51c0.339,0.255,0.219,0.813-0.163,0.997c0,0-2.772,1.372-5.431,1.669
		c-0.269,0.028-0.481,0-0.721-0.113c-1.612-0.764-2.892-2.27-3.585-3.585c-0.127-0.24-0.163-0.474-0.106-0.742
		c0.693-3.026,1.853-5.247,1.853-5.247c0.205-0.361,0.742-0.474,0.99-0.141C32.613,53.187,33.391,53.88,36.969,56.51z"/>
	<path fill="#C0B2FF" d="M83.879,2.12C85.293,3.534,86,5.386,86,7.253c0,1.853-0.7,3.712-2.114,5.127l-1.761,1.761L71.858,3.873
		l1.761-1.761C76.44-0.709,81.057-0.702,83.879,2.12z"/>
	<path fill="none" stroke="#C0B2FF" stroke-width="4" stroke-linecap="round" stroke-linejoin="round" stroke-miterlimit="10" d="
		M44.28,9H8.875C5.63,9,3,11.63,3,14.875v62.25C3,80.37,5.63,83,8.875,83h62.25C74.37,83,77,80.37,77,77.125V37.311"/>
</g>
</svg>
