<?xml version="1.0" encoding="utf-8"?>
<!-- Generator: Adobe Illustrator 28.0.0, SVG Export Plug-In . SVG Version: 6.00 Build 0)  -->
<svg version="1.1" id="Layer_2_00000028290012586540853220000016623507670761220231_"
	 xmlns="http://www.w3.org/2000/svg" xmlns:xlink="http://www.w3.org/1999/xlink" x="0px" y="0px" viewBox="0 0 86 86"
	 enable-background="new 0 0 86 86" xml:space="preserve">
<g>
	<path fill="#967FFF" d="M85.9,48.8V38.4L43.2,15.5L0,38.7v10.1c0,2.2,1.8,4,4,4l39,14.4l38.9-14.4C84.1,52.8,85.9,51,85.9,48.8z"/>
	<g>
		<path fill="#AD9FFF" d="M0,43.1l43,23.1l43-23.1v36.98c0,2.87-2.35,5.22-5.22,5.22H5.23C2.34,85.3,0,82.96,0,80.07V43.1z"/>
	</g>
	
		<rect x="22.51" y="18.46" transform="matrix(0.6879 -0.7258 0.7258 0.6879 -7.6127 49.1179)" fill="#D4E8F3" width="61.6" height="29.9"/>
	<polygon fill="#FFFFFF" points="82.8,13 40.4,57.8 21.3,45.4 63.7,0.7 	"/>
</g>
</svg>
