<?xml version="1.0" encoding="UTF-8"?><svg id="Layer_2" xmlns="http://www.w3.org/2000/svg" viewBox="0 0 85.9 84.8"><defs><style>.cls-1{fill:#fff;stroke-width:0px;}</style></defs><g id="Layer_2-2"><path class="cls-1" d="m40.5,52H1.7c-.8,0-1.5-.7-1.5-1.5V1.6C.2.8.9.1,1.7.1h36.3c1.4,0,2.5,1.1,2.5,2.5v49.4Z"/><path class="cls-1" d="m84,84.7h-37.2c-1,0-1.8-.8-1.8-1.8v-49.1h39.1c1,0,1.8.8,1.8,1.8v47.2c0,1.1-.8,1.9-1.9,1.9Z"/><path class="cls-1" d="m83.9,28.8h-38.9V2c0-1.1.9-2,2-2h36.9c1.1,0,2,.9,2,2v24.8c0,1.1-.9,2-2,2Z"/><path class="cls-1" d="m38.3,84.8H2.1c-1.2,0-2.1-1-2.1-2.1v-24.6c0-1.2,1-2.1,2.1-2.1h38.8v26.3c0,1.4-1.2,2.5-2.6,2.5Z"/></g></svg>