<?xml version="1.0" encoding="utf-8"?>
<!-- Generator: Adobe Illustrator 28.0.0, SVG Export Plug-In . SVG Version: 6.00 Build 0)  -->
<svg version="1.1" id="Layer_2_00000028290012586540853220000016623507670761220231_"
	 xmlns="http://www.w3.org/2000/svg" xmlns:xlink="http://www.w3.org/1999/xlink" x="0px" y="0px" viewBox="0 0 86 86"
	 enable-background="new 0 0 86 86" xml:space="preserve">
<g>
	<path fill="#967FFF" d="M40.35,52.63H3.3c-1.8,0-3.3-1.52-3.3-3.35V3.35C0,1.52,1.5,0,3.3,0h33.74c1.8,0,3.3,1.52,3.3,3.35V52.63z"
		/>
	<path fill="#AB99FF" d="M45.65,33.37H83.3c1.5,0,2.7,1.22,2.7,2.74v46.35c0,1.93-1.6,3.55-3.5,3.55H48.16c-1.4,0-2.5-1.12-2.5-2.54
		V33.37z"/>
	<path fill="#C0B2FF" d="M37.54,86H3.3C1.5,86,0,84.48,0,82.65V60.44c0-1.72,1.4-3.25,3.2-3.25h37.14v25.96
		C40.35,84.68,39.05,86,37.54,86z"/>
	<path fill="#C0B2FF" d="M48.46,0H82c2.2,0,4,1.83,4,4.06v21.2c0,1.93-1.5,3.55-3.5,3.55H45.65V2.84C45.65,1.32,46.95,0,48.46,0z"/>
</g>
</svg>
