<?xml version="1.0" encoding="utf-8"?>
<!-- Generator: Adobe Illustrator 28.0.0, SVG Export Plug-In . SVG Version: 6.00 Build 0)  -->
<svg version="1.1" id="Layer_2_00000106843812277361974760000010442169764901233027_"
	 xmlns="http://www.w3.org/2000/svg" xmlns:xlink="http://www.w3.org/1999/xlink" x="0px" y="0px" viewBox="0 0 86 86"
	 enable-background="new 0 0 86 86" xml:space="preserve">
<path fill="#F9F7FF" d="M70.6,11.3H13.4c-2.6,0-4.8,2.2-4.8,4.7v39.2c0,2.2,1.8,3.9,4,3.9h13c1.7,0,3,1.4,2.9,3.1
	c0,0,1,7.1-8.9,12.5C40.8,74.7,50,60.5,50,60.5c1.6-0.9,3.5-1.4,5.4-1.4h16.1c3.4,0,6-2.7,6-5.9V18C77.4,14.3,74.3,11.3,70.6,11.3z
	 M44.9,49.3H18.8v-5.4H45v5.4H44.9z M67.2,37.8H18.8v-5.4h48.5v5.4H67.2z M67.2,26.3H18.8v-5.4h48.5v5.4H67.2z"/>
</svg>
