<?xml version="1.0" encoding="utf-8"?>
<!-- Generator: Adobe Illustrator 28.0.0, SVG Export Plug-In . SVG Version: 6.00 Build 0)  -->
<svg version="1.1" id="Layer_2_00000140698096846804136480000012060753113884848039_"
	 xmlns="http://www.w3.org/2000/svg" xmlns:xlink="http://www.w3.org/1999/xlink" x="0px" y="0px" viewBox="0 0 86 86"
	 enable-background="new 0 0 86 86" xml:space="preserve">
<path fill="#FFA700" d="M83.22,42.91C86.86,51.31,81.46,61,81.46,61s-7.57-2.84-11.01-3.7c-2.47-0.62-20.65,3.55-20.65,3.55
	l5.5-14.57l-3.2-6.13l-0.51-0.98l-0.83-1.58l-0.96-1.87c1.17,0.82,2.27,1.57,2.97,1.96c1.16,0.64,3.49-10.64,3.18-13.93
	c0.15,0.08,10.97,2.12,15.83,2.66c4.06,0.45,11.93,0.26,12.79,0.35C83.44,29.18,80.94,37.65,83.22,42.91z"/>
<path fill="#FFCC00" d="M57.58,39.98"/>
<path fill="#FFCC00" d="M75.35,57.3L75.35,57.3z"/>
<path fill="#00AD04" d="M33.52,27.74l6.88,5.87c-3.37,0.54-7.99,0.62-12.04-1.7C27.26,31.27,29.93,29.56,33.52,27.74z"/>
<polygon fill="#00AD04" points="1.42,38.67 20.31,16.46 67.89,58.11 49.01,80.32 "/>
<polygon fill="#00D00A" points="12.02,18.86 37.28,5.68 68.27,62.56 43.01,75.74 "/>
<path fill="#FFCC00" d="M75.35,31.28c0,0-5.89,5.57-7.44,6.78c-3.43,2.67-7.31,3.44-9.23,2.96c-4.1-1.02-5.22-1.93-9.91-5.68
	c-1.35-1.07-2.59-1.92-2.85-2.12c-0.03-0.03-0.08-0.03-0.12-0.02c-0.36,0.14-2.2,0.83-4.75,1.24c-3.37,0.54-7.99,0.62-12.04-1.7
	c-1.12-0.64,1.57-2.35,5.16-4.17c3.25-1.65,7.23-3.37,9.8-4.45c1.43-0.6,2.41-0.99,2.6-1.07c0.02-0.01,0.04-0.01,0.08-0.01
	C46.65,23.04,67.12,21.15,75.35,31.28z"/>
<path fill="#FFCC00" d="M8.96,45.07l5.93,5.06c-6.13-0.21-11.67-0.8-11.82-2.19C2.98,47.05,5.41,46.04,8.96,45.07z"/>
<path fill="#FFCC00" d="M27.65,50.39c3.53,1.74-11.07,11.23-13.63,7.01C11.55,53.31,22.69,47.95,27.65,50.39z"/>
<path fill="#FFCC00" d="M34.35,55.9c3.53,1.74-11.07,11.23-13.63,7.01C18.25,58.82,29.41,53.45,34.35,55.9z"/>
<path fill="#FFCC00" d="M40.42,62.29c3.53,1.74-11.07,11.23-13.63,7.01C24.33,65.21,35.47,59.85,40.42,62.29z"/>
<g>
	<g>
		<path d="M32.99,52.91l1.41-2.17c-1.33-0.89-2.37-2.38-2.81-3.48l1.75-1.35c0.48,1.09,1.34,2.31,2.64,3.14
			c1.65,1.06,3.78,1.28,4.63-0.05c1.09-1.49-0.11-2.96-1.39-4.76c-1.78-2.45-2.92-4.74-1.62-6.76c1.23-1.93,4.17-2.56,6.53-1.54
			l1.24-2.02l1.44,0.92l-1.18,1.92c1.36,0.94,1.82,2.25,2.24,3.08L46.29,41c-0.31-0.59-0.93-1.71-2.42-2.66
			c-1.79-1.15-3.34-0.77-3.93,0.16c-0.77,1.21,0.02,2.49,1.51,4.62c1.77,2.51,3.03,4.95,1.43,7.21c-1.17,1.84-4.32,2.4-6.97,1.26
			l-1.46,2.24L32.99,52.91z"/>
	</g>
	<polygon points="36.02,51.44 34.5,50.57 43.86,36.29 45.36,37.12 	"/>
</g>
</svg>
