<?xml version="1.0" encoding="utf-8"?>
<!-- Generator: Adobe Illustrator 28.0.0, SVG Export Plug-In . SVG Version: 6.00 Build 0)  -->
<svg version="1.1" id="Layer_2_00000140698096846804136480000012060753113884848039_"
	 xmlns="http://www.w3.org/2000/svg" xmlns:xlink="http://www.w3.org/1999/xlink" x="0px" y="0px" viewBox="0 0 86 86"
	 enable-background="new 0 0 86 86" xml:space="preserve">
<g>
	<path fill="#FFA700" d="M83.22,42.92C86.86,51.32,81.46,61,81.46,61s-7.57-2.84-11.01-3.7c-2.47-0.62-20.65,3.55-20.65,3.55
		l5.5-14.57l-3.2-6.13l-0.51-0.98l-0.83-1.58l-0.96-1.87c1.17,0.82,2.27,1.57,2.97,1.96c1.16,0.64,3.49-10.64,3.18-13.93
		c0.15,0.08,10.97,2.12,15.83,2.66c4.06,0.45,11.93,0.26,12.79,0.35C83.45,29.18,80.94,37.66,83.22,42.92z"/>
	<path fill="#00AD04" d="M33.53,27.74l6.88,5.87c-3.37,0.54-7.99,0.62-12.04-1.7C27.27,31.27,29.94,29.56,33.53,27.74z"/>
	<polygon fill="#00AD04" points="1.43,38.67 20.31,16.46 67.89,58.11 49.01,80.32 	"/>
	<polygon fill="#00D00A" points="12.02,18.87 37.28,5.68 68.27,62.56 43.01,75.75 	"/>
	<g>
		<path d="M40.73,54.47c-1.11,0.04-2.75-0.24-4.43-1.27c-2.05-1.26-3.38-3.19-3.73-5.42c-0.3-1.67-0.03-3.51,0.87-5.48l-1.57-0.97
			l0.77-1.23l1.44,0.89c0.07-0.12,0.17-0.25,0.24-0.38c0.25-0.4,0.51-0.77,0.76-1.11l-1.49-0.93l0.77-1.26l1.67,1.02
			c1.4-1.58,3.08-2.59,4.71-3c2.12-0.54,4.22-0.29,6.31,1c1.49,0.93,2.39,2.08,2.86,2.89l-1.53,1.36c-0.38-0.77-1.26-1.75-2.4-2.46
			c-1.37-0.85-2.78-1.05-4.2-0.68c-1.21,0.27-2.42,1.09-3.51,2.28l7.05,4.37l-0.77,1.26l-7.28-4.5c-0.22,0.31-0.48,0.67-0.71,1.03
			c-0.09,0.16-0.17,0.28-0.29,0.46l7.34,4.54l-0.77,1.23l-7.15-4.43c-0.7,1.59-0.88,2.99-0.66,4.18c0.32,1.56,1.29,2.83,2.66,3.68
			c1.34,0.83,2.82,1.03,3.61,1.07L40.73,54.47z"/>
	</g>
	<path fill="#FFCC00" d="M75.36,31.28c0,0-5.89,5.57-7.44,6.78c-3.43,2.67-7.31,3.44-9.23,2.96c-4.1-1.02-5.22-1.93-9.91-5.68
		c-1.35-1.07-2.59-1.92-2.85-2.12c-0.03-0.03-0.08-0.03-0.12-0.02c-0.36,0.14-2.2,0.83-4.75,1.24c-3.37,0.54-7.99,0.62-12.04-1.7
		c-1.12-0.64,1.57-2.35,5.16-4.17c3.25-1.65,7.23-3.37,9.8-4.45c1.43-0.6,2.41-0.99,2.6-1.07c0.02-0.01,0.04-0.01,0.08-0.01
		C46.66,23.04,67.13,21.15,75.36,31.28z"/>
	<path fill="#FFCC00" d="M8.97,45.07l5.93,5.06c-6.13-0.21-11.67-0.8-11.82-2.19C2.99,47.05,5.42,46.04,8.97,45.07z"/>
	<path fill="#FFCC00" d="M27.65,50.39c3.53,1.74-11.07,11.23-13.63,7.01C11.55,53.31,22.7,47.95,27.65,50.39z"/>
	<path fill="#FFCC00" d="M34.35,55.9c3.53,1.74-11.07,11.23-13.63,7.01C18.25,58.82,29.4,53.45,34.35,55.9z"/>
	<path fill="#FFCC00" d="M40.42,62.29c3.53,1.74-11.07,11.23-13.63,7.01C24.32,65.21,35.47,59.85,40.42,62.29z"/>
</g>
</svg>
