<?xml version="1.0" encoding="utf-8"?>
<!-- Generator: Adobe Illustrator 28.0.0, SVG Export Plug-In . SVG Version: 6.00 Build 0)  -->
<svg version="1.1" id="Layer_2_00000140698096846804136480000012060753113884848039_"
	 xmlns="http://www.w3.org/2000/svg" xmlns:xlink="http://www.w3.org/1999/xlink" x="0px" y="0px" viewBox="0 0 86 86"
	 enable-background="new 0 0 86 86" xml:space="preserve">
<g>
	<g>
		<polygon fill="#73AF2C" points="26.88,48.92 26.88,18.82 52.98,3.72 79.08,18.82 79.08,48.92 52.98,64.01 		"/>
		<g>
			<polygon fill="#9AE93A" points="79.08,20.62 54.58,34.82 54.58,63.12 79.08,48.92 			"/>
			<polygon fill="#9AE93A" points="26.88,20.62 26.88,48.92 51.38,63.12 51.38,34.82 			"/>
		</g>
		<polygon fill="#AEEE62" points="76.98,18.82 54.58,31.62 54.58,14.41 		"/>
		<polygon fill="#568321" points="26.88,18.91 52.98,3.72 52.98,32.52 		"/>
		<polygon fill="#AEEE62" points="51.38,31.62 40.08,5.82 28.78,18.91 		"/>
	</g>
	<path fill="#FFCC00" d="M33.99,65.6"/>
	<path fill="#FFCC00" d="M12.9,82.29L12.9,82.29z"/>
	<path fill="#FFA700" d="M10.41,81.4c0.1,0.26,0.66,0.8,0.92,0.67l12.42-10.01c0,0,23.99,10.2,34.97,8.56
		c2.97-0.44,25.27-18.12,24.84-23.22c-0.41-4.91-30.98,13.2-30.98,13.2S26.74,54.4,13,54.41c-3.69,0-9.78,11.59-10.56,11.67
		C2.43,74.43,7.59,74.18,10.41,81.4z"/>
	<path fill="#FFCC00" d="M12,54.6c7.47,15.51,29.14,9.6,33.4,6.21c1.22-0.97,10.4-6.09,6.52-7.59c-12.75-4.94-11.52,5.14-20.35,1.77
		C18.81,50.12,16.35,52.6,12,54.6z"/>
</g>
</svg>
