<?xml version="1.0" encoding="utf-8"?>
<!-- Generator: Adobe Illustrator 28.0.0, SVG Export Plug-In . SVG Version: 6.00 Build 0)  -->
<svg version="1.1" id="Layer_2_00000140698096846804136480000012060753113884848039_"
	 xmlns="http://www.w3.org/2000/svg" xmlns:xlink="http://www.w3.org/1999/xlink" x="0px" y="0px" viewBox="0 0 86 86"
	 enable-background="new 0 0 86 86" xml:space="preserve">
<g>
	<path fill="#FFC107" d="M43.39,50.17l-1.15-0.53c-12.09-5.21-21.89-19.15-21.89-30.98c0-5.56,2.21-9.83,4.06-11.59
		c2.3-2.21,5.47-3.35,8.83-3.35c3.8,0,8.12,3.12,10.06,6.91c1.77-3.88,5.65-7,10.06-7c3.44,0,6.53,1.24,8.83,3.44
		c1.85,1.77,4.06,6.03,4.06,11.59c0,12.18-8.74,24.54-21.8,30.89L43.39,50.17z M32,8.7c-2.3,0-3.4,0.8-4.9,2.2
		c-1.8,1.7-2.7,3.3-2.7,6.7c0,10.6,8,21.6,18.9,27c11.9-6.3,19-16,19-27c0-3.4-0.9-5-2.7-6.7c-1.5-1.4-2.6-2.2-4.9-2.2
		c-4,0-9,4.7-11.4,10.4C40.8,13.4,36,8.7,32,8.7z"/>
	<path fill="#AD9FFF" d="M5.9,20.2c3,0,4.8,26.2,4.8,26.2l27.2,23.7L35.5,86H14.2l6.4-17.1L1.8,50C1.8,50,2.9,20.2,5.9,20.2z"/>
	<path fill="#AD9FFF" d="M80.1,20.2c-3,0-4.8,26.2-4.8,26.2L48.2,70l2.4,15.9h21.3l-6.4-17.1L84.3,50C84.2,50,83.1,20.2,80.1,20.2z"
		/>
</g>
</svg>
