<?xml version="1.0" encoding="utf-8"?>
<!-- Generator: Adobe Illustrator 28.0.0, SVG Export Plug-In . SVG Version: 6.00 Build 0)  -->
<svg version="1.1" id="Layer_2_00000140698096846804136480000012060753113884848039_"
	 xmlns="http://www.w3.org/2000/svg" xmlns:xlink="http://www.w3.org/1999/xlink" x="0px" y="0px" viewBox="0 0 86 86"
	 enable-background="new 0 0 86 86" xml:space="preserve">
<g>
	<path fill="#F6A000" d="M43.39,50.53l-1.21-0.56c-12.76-5.5-23.1-20.21-23.1-32.69c0-5.87,2.33-9.31,4.28-11.18
		c2.42-2.33,4.84-3.54,8.38-3.54c4,0,8.94,4.1,11.55,9.03c2.14-4.94,6.89-9.13,11.55-9.13c3.63,0,5.96,1.3,8.38,3.63
		c1.96,1.86,4.28,5.31,4.28,11.18c0,12.85-9.22,25.89-23.01,32.6L43.39,50.53z"/>
	<path fill="#AD9FFF" d="M5.8,20.3c3,0,4.8,26.2,4.8,26.2l27.2,23.6L35.4,86H14.2l6.4-17.1L1.8,50.1C1.8,50.1,2.9,20.3,5.8,20.3z"/>
	<path fill="#AD9FFF" d="M80.1,20.3c-3,0-4.8,26.2-4.8,26.2L48.2,70.1L50.6,86h21.2l-6.4-17.1l18.8-18.8
		C84.2,50.1,83.1,20.3,80.1,20.3z"/>
</g>
</svg>
