<?xml version="1.0" encoding="utf-8"?>
<!-- Generator: Adobe Illustrator 28.0.0, SVG Export Plug-In . SVG Version: 6.00 Build 0)  -->
<svg version="1.1" id="Layer_2_00000106843812277361974760000010442169764901233027_"
	 xmlns="http://www.w3.org/2000/svg" xmlns:xlink="http://www.w3.org/1999/xlink" x="0px" y="0px" viewBox="0 0 86 86"
	 enable-background="new 0 0 86 86" xml:space="preserve">
<path fill="#967FFF" d="M82.29,14H3.71C1.66,14,0,15.66,0,17.71v50.58C0,70.34,1.66,72,3.71,72h78.58c2.05,0,3.71-1.66,3.71-3.71
	V17.71C86,15.66,84.34,14,82.29,14z M80.63,62.63c-0.22,1.29-0.47,2.55-0.73,3.8c-1.27,0.15-2.55,0.29-3.83,0.42
	c-10.73,1.1-21.81,1.66-33.07,1.66s-22.34-0.56-33.07-1.66c-1.28-0.13-2.56-0.27-3.83-0.42c-0.26-1.25-0.51-2.51-0.73-3.8
	C4.3,56.41,3.73,49.82,3.73,43S4.3,29.59,5.37,23.37c0.22-1.29,0.47-2.55,0.73-3.8c1.27-0.15,2.55-0.29,3.83-0.42
	c10.73-1.1,21.81-1.66,33.07-1.66s22.34,0.56,33.07,1.66c1.28,0.13,2.56,0.27,3.83,0.42c0.26,1.25,0.51,2.51,0.73,3.8
	c1.07,6.22,1.64,12.81,1.64,19.63S81.7,56.41,80.63,62.63z"/>
</svg>
